<svg xmlns="http://www.w3.org/2000/svg" viewBox="0 0 1600 1000" preserveAspectRatio="xMidYMid slice">
<defs>
 <linearGradient id="bg" x1="0" y1="0" x2="1" y2="1"><stop stop-color="#020711"/><stop offset=".48" stop-color="#061525"/><stop offset="1" stop-color="#02040b"/></linearGradient>
 <radialGradient id="glow"><stop stop-color="#5ff6ff" stop-opacity=".28"/><stop offset="1" stop-color="#5ff6ff" stop-opacity="0"/></radialGradient>
 <filter id="soft"><feGaussianBlur stdDeviation="2"/></filter>
 <pattern id="grid" width="80" height="80" patternUnits="userSpaceOnUse"><path d="M80 0H0V80" fill="none" stroke="#4ff3ff" stroke-opacity=".08"/></pattern>
 <linearGradient id="line" x1="0" y1="0" x2="1" y2="0"><stop stop-color="#4ff3ff" stop-opacity="0"/><stop offset=".45" stop-color="#4ff3ff" stop-opacity=".9"/><stop offset="1" stop-color="#8b7cff" stop-opacity="0"/></linearGradient>
</defs>
<rect width="1600" height="1000" fill="url(#bg)"/>
<rect width="1600" height="1000" fill="url(#grid)"/>
<ellipse cx="800" cy="390" rx="620" ry="420" fill="url(#glow)"/>
<g fill="none" stroke="url(#line)" stroke-width="2" opacity=".65">
 <path d="M-80 780 C260 520 330 820 620 560 S1040 230 1680 510"><animate attributeName="stroke-dasharray" values="0 2600;500 2100;0 2600" dur="8s" repeatCount="indefinite"/></path>
 <path d="M-100 250 C250 470 440 120 720 370 S1190 650 1700 280"><animate attributeName="stroke-dasharray" values="0 2500;420 2080;0 2500" dur="10s" repeatCount="indefinite"/></path>
 <path d="M170 1040 C430 780 550 860 760 650 S1190 540 1480 -30"><animate attributeName="stroke-dasharray" values="0 2500;380 2120;0 2500" dur="12s" repeatCount="indefinite"/></path>
</g>
<g fill="#62f6ff">
 <circle cx="170" cy="780" r="5"><animate attributeName="cy" values="780;770;780" dur="3s" repeatCount="indefinite"/></circle>
 <circle cx="620" cy="560" r="6"><animate attributeName="r" values="4;9;4" dur="2.4s" repeatCount="indefinite"/></circle>
 <circle cx="1040" cy="230" r="5"><animate attributeName="r" values="3;8;3" dur="2.8s" repeatCount="indefinite"/></circle>
 <circle cx="1320" cy="510" r="7"><animate attributeName="r" values="4;10;4" dur="2.2s" repeatCount="indefinite"/></circle>
 <circle cx="720" cy="370" r="5"><animate attributeName="r" values="3;7;3" dur="2.6s" repeatCount="indefinite"/></circle>
</g>
<g fill="none" stroke="#8c7bff" stroke-opacity=".32">
 <path d="M260 160h180v110H260z"/><path d="M1160 700h240v130h-240z"/><path d="M90 480h180v100H90z"/>
 <path d="M260 190h180M260 220h120M260 250h155"/><path d="M1160 735h200M1160 765h145M1160 795h180"/>
</g>
<g font-family="monospace" font-size="16" fill="#61f3ff" opacity=".28">
 <text x="90" y="90">NET::LIVE // NODE_01 // ROUTE_OK</text>
 <text x="1080" y="110">TCP 443 · HTTPS · SSH · DNS</text>
 <text x="60" y="930">PACKETS ███████░ 87% · LATENCY 18ms</text>
 <text x="1120" y="930">SYSTEM ONLINE · D12</text>
</g>
<g fill="#61f3ff" opacity=".12" filter="url(#soft)"><circle cx="320" cy="330" r="100"/><circle cx="1260" cy="330" r="140"/><circle cx="800" cy="800" r="120"/></g>
</svg>